<?xml version="1.0" encoding="UTF-8"?>
<svg xmlns="http://www.w3.org/2000/svg" xmlns:xlink="http://www.w3.org/1999/xlink" viewBox="0 0 150 150" width="150px" height="150px">
<g id="surface3109728">
<path style=" stroke:none;fill-rule:nonzero;fill:rgb(20%,20%,20%);fill-opacity:1;" d="M 18.75 18.75 L 131.25 18.75 L 131.25 131.25 L 18.75 131.25 Z M 18.75 18.75 "/>
<path style=" stroke:none;fill-rule:nonzero;fill:rgb(100%,100%,100%);fill-opacity:1;" d="M 85.90625 68.75 L 44.460938 68.75 L 44.460938 78.949219 L 59.324219 78.949219 L 59.324219 125 L 71.101562 125 L 71.101562 78.949219 L 85.90625 78.949219 Z M 85.90625 68.75 "/>
<path style=" stroke:none;fill-rule:nonzero;fill:rgb(100%,100%,100%);fill-opacity:1;" d="M 122.480469 81.511719 C 122.480469 81.511719 116.898438 77.789062 110.585938 77.789062 C 104.273438 77.789062 102 80.789062 102 83.992188 C 102 92.269531 125.066406 91.441406 125.066406 108.09375 C 125.066406 133.746094 89.898438 122.367188 89.898438 122.367188 L 89.898438 110.0625 C 89.898438 110.0625 96.621094 115.132812 104.6875 115.132812 C 112.753906 115.132812 112.445312 109.855469 112.445312 109.132812 C 112.445312 101.476562 89.585938 101.476562 89.585938 84.511719 C 89.585938 61.445312 122.894531 70.546875 122.894531 70.546875 Z M 122.480469 81.511719 "/>
</g>
</svg>
