<?xml version="1.0" encoding="UTF-8"?>
<svg xmlns="http://www.w3.org/2000/svg" xmlns:xlink="http://www.w3.org/1999/xlink" viewBox="0 0 150 150" width="150px" height="150px">
<g id="surface3120337">
<path style=" stroke:none;fill-rule:nonzero;fill:rgb(20%,20%,20%);fill-opacity:1;" d="M 74.917969 4.691406 C 74.894531 4.691406 74.867188 4.699219 74.84375 4.703125 C 74.785156 4.707031 74.726562 4.722656 74.664062 4.734375 C 74.4375 4.765625 74.214844 4.832031 74.003906 4.933594 C 73.964844 4.953125 73.925781 4.945312 73.886719 4.964844 L 12.949219 37.777344 C 12.753906 37.886719 12.582031 38.015625 12.429688 38.167969 C 12.394531 38.199219 12.375 38.242188 12.347656 38.273438 C 12.191406 38.441406 12.070312 38.628906 11.96875 38.832031 C 11.9375 38.902344 11.90625 38.964844 11.878906 39.039062 C 11.785156 39.292969 11.71875 39.554688 11.71875 39.835938 L 11.71875 110.15625 C 11.71875 110.363281 11.75 110.570312 11.800781 110.765625 C 11.871094 111.027344 11.996094 111.261719 12.148438 111.484375 C 12.183594 111.535156 12.222656 111.582031 12.261719 111.628906 C 12.433594 111.839844 12.628906 112.027344 12.867188 112.171875 C 12.871094 112.171875 12.878906 112.171875 12.882812 112.175781 C 12.886719 112.175781 12.886719 112.183594 12.890625 112.183594 L 73.800781 147.328125 C 73.804688 147.328125 73.808594 147.328125 73.808594 147.332031 C 73.8125 147.332031 73.816406 147.335938 73.820312 147.335938 L 73.828125 147.339844 C 73.933594 147.402344 74.046875 147.433594 74.15625 147.476562 C 74.234375 147.507812 74.3125 147.550781 74.390625 147.574219 L 74.394531 147.574219 C 74.59375 147.628906 74.792969 147.65625 74.996094 147.65625 L 75 147.65625 C 75.199219 147.65625 75.402344 147.628906 75.59375 147.578125 C 75.636719 147.566406 75.671875 147.546875 75.710938 147.53125 C 75.855469 147.484375 76.003906 147.433594 76.140625 147.359375 L 139.421875 112.203125 C 139.429688 112.195312 139.433594 112.183594 139.445312 112.179688 C 139.464844 112.167969 139.492188 112.164062 139.511719 112.152344 C 139.726562 112.019531 139.90625 111.84375 140.066406 111.652344 C 140.109375 111.605469 140.140625 111.554688 140.175781 111.503906 C 140.316406 111.304688 140.425781 111.097656 140.5 110.867188 C 140.511719 110.835938 140.523438 110.808594 140.535156 110.777344 C 140.589844 110.578125 140.625 110.371094 140.625 110.15625 L 140.625 39.84375 C 140.625 39.828125 140.617188 39.8125 140.617188 39.796875 C 140.609375 39.539062 140.550781 39.292969 140.464844 39.054688 C 140.433594 38.972656 140.402344 38.898438 140.363281 38.820312 C 140.269531 38.625 140.152344 38.453125 140.007812 38.292969 C 139.972656 38.253906 139.949219 38.207031 139.910156 38.167969 C 139.75 38.011719 139.566406 37.871094 139.363281 37.765625 L 76.082031 4.953125 C 75.984375 4.902344 75.878906 4.878906 75.777344 4.84375 C 75.71875 4.824219 75.667969 4.800781 75.609375 4.785156 C 75.382812 4.722656 75.148438 4.683594 74.917969 4.691406 Z M 77.34375 10.886719 L 133.117188 39.800781 L 110.191406 51.269531 L 77.34375 33.75 Z M 72.65625 10.957031 L 72.65625 33.75 L 39.859375 51.242188 L 18.984375 39.859375 Z M 75 37.816406 L 105.175781 53.90625 L 75 69.996094 L 44.824219 53.90625 Z M 135.9375 43.636719 L 135.9375 106.367188 L 112.5 94.648438 L 112.5 55.351562 Z M 16.40625 43.792969 L 37.5 55.296875 L 37.5 60.9375 C 37.5 62.234375 38.550781 63.28125 39.84375 63.28125 C 41.136719 63.28125 42.1875 62.234375 42.1875 60.9375 L 42.1875 57.816406 L 72.65625 74.0625 L 72.65625 110.933594 L 42.1875 94.6875 L 42.1875 89.0625 C 42.1875 87.765625 41.136719 86.71875 39.84375 86.71875 C 38.550781 86.71875 37.5 87.765625 37.5 89.0625 L 37.5 94.703125 L 16.40625 106.207031 Z M 107.8125 57.816406 L 107.8125 96.09375 C 107.8125 96.210938 107.859375 96.3125 107.875 96.421875 C 107.902344 96.59375 107.917969 96.757812 107.976562 96.917969 C 108.03125 97.058594 108.117188 97.175781 108.195312 97.300781 C 108.277344 97.429688 108.34375 97.558594 108.449219 97.671875 C 108.5625 97.796875 108.699219 97.882812 108.839844 97.980469 C 108.933594 98.046875 109 98.136719 109.109375 98.191406 L 133.257812 110.265625 L 77.34375 141.328125 L 77.34375 74.0625 Z M 39.84375 67.96875 C 38.550781 67.96875 37.5 69.015625 37.5 70.3125 L 37.5 79.6875 C 37.5 80.984375 38.550781 82.03125 39.84375 82.03125 C 41.136719 82.03125 42.1875 80.984375 42.1875 79.6875 L 42.1875 70.3125 C 42.1875 69.015625 41.136719 67.96875 39.84375 67.96875 Z M 101.03125 95.855469 C 100.730469 95.882812 100.425781 95.972656 100.140625 96.125 C 99 96.734375 98.5625 98.152344 99.175781 99.292969 L 101.382812 103.433594 C 101.804688 104.222656 102.613281 104.671875 103.449219 104.671875 C 103.820312 104.671875 104.199219 104.585938 104.554688 104.398438 C 105.695312 103.789062 106.125 102.367188 105.515625 101.226562 L 103.308594 97.085938 C 102.851562 96.234375 101.945312 95.773438 101.03125 95.855469 Z M 39.851562 98.757812 L 72.65625 116.25 L 72.65625 141.257812 L 18.847656 110.210938 Z M 91.265625 101.066406 C 90.960938 101.09375 90.660156 101.179688 90.371094 101.332031 C 89.230469 101.941406 88.796875 103.363281 89.40625 104.503906 L 91.613281 108.640625 C 92.035156 109.429688 92.847656 109.882812 93.6875 109.882812 C 94.054688 109.882812 94.429688 109.792969 94.785156 109.605469 C 95.925781 108.996094 96.359375 107.574219 95.75 106.433594 L 93.542969 102.296875 C 93.085938 101.441406 92.175781 100.984375 91.265625 101.066406 Z M 81.5 106.269531 C 81.195312 106.296875 80.894531 106.386719 80.609375 106.539062 C 79.464844 107.148438 79.03125 108.570312 79.640625 109.710938 L 81.847656 113.847656 C 82.269531 114.636719 83.082031 115.085938 83.917969 115.085938 C 84.289062 115.085938 84.667969 115 85.019531 114.8125 C 86.160156 114.203125 86.59375 112.78125 85.980469 111.640625 L 83.773438 107.5 C 83.320312 106.648438 82.410156 106.1875 81.5 106.269531 Z M 81.5 106.269531 "/>
</g>
</svg>
